<svg width="255" height="51" viewBox="0 0 255 51" fill="none" xmlns="http://www.w3.org/2000/svg">
<rect x="0.5" y="0.5" width="254" height="50" fill="#333333"/>
<path d="M43.7357 19.4H45.4097V32H43.7357V26.924C42.7517 27.392 41.7197 27.626 40.6397 27.626C39.4157 27.626 38.4257 27.284 37.6697 26.6C36.9137 25.904 36.5357 25.004 36.5357 23.9V19.4H38.2097V23.792C38.2097 24.476 38.4257 25.022 38.8577 25.43C39.2897 25.838 39.8897 26.042 40.6577 26.042C41.7377 26.042 42.7637 25.808 43.7357 25.34V19.4ZM57.7384 32V22.604L51.2584 32H49.9084V19.4H51.5824V28.814L58.0624 19.4H59.4124V32H57.7384ZM71.9716 19.4V20.984H68.2456V32H66.5896V20.984H62.8816V19.4H71.9716ZM82.8123 32L81.7863 29.174H76.1163L75.0903 32H73.3083L78.0063 19.4H79.8963L84.5943 32H82.8123ZM76.6923 27.608H81.2103L78.9423 21.398L76.6923 27.608ZM95.0306 19.4V20.984H91.3046V32H89.6486V20.984H85.9406V19.4H95.0306ZM103.059 23.9C104.223 23.9 105.189 24.29 105.957 25.07C106.737 25.85 107.127 26.81 107.127 27.95C107.127 29.102 106.737 30.068 105.957 30.848C105.189 31.616 104.223 32 103.059 32H98.4873V19.4H100.161V23.9H103.059ZM103.059 30.434C103.755 30.434 104.331 30.2 104.787 29.732C105.243 29.264 105.471 28.67 105.471 27.95C105.471 27.242 105.243 26.654 104.787 26.186C104.331 25.706 103.755 25.466 103.059 25.466H100.161V30.434H103.059ZM124.998 19.4H126.654V32H124.998V26.33H118.878V32H117.204V19.4H118.878V24.746H124.998V19.4ZM139.449 32L138.423 29.174H132.753L131.727 32H129.945L134.643 19.4H136.533L141.231 32H139.449ZM133.329 27.608H137.847L135.579 21.398L133.329 27.608ZM157.207 19.4H158.881V32H144.517V19.4H146.191V30.416H150.871V19.4H152.527V30.416H157.207V19.4ZM174.42 24.35C175.512 24.35 176.436 24.722 177.192 25.466C177.948 26.198 178.326 27.098 178.326 28.166C178.326 29.258 177.948 30.17 177.192 30.902C176.448 31.634 175.524 32 174.42 32H169.686V19.4H177.246V20.984H171.36V24.35H174.42ZM174.42 30.434C175.044 30.434 175.572 30.218 176.004 29.786C176.448 29.354 176.67 28.814 176.67 28.166C176.67 27.53 176.448 26.996 176.004 26.564C175.572 26.132 175.044 25.916 174.42 25.916H171.36V30.434H174.42ZM180.653 32V30.488C181.481 30.608 182.099 30.38 182.507 29.804C182.927 29.216 183.137 28.13 183.137 26.546V19.4H191.453V32H189.779V20.984H184.811V26.546C184.811 27.674 184.703 28.622 184.487 29.39C184.283 30.146 183.983 30.716 183.587 31.1C183.203 31.484 182.771 31.748 182.291 31.892C181.823 32.024 181.277 32.06 180.653 32ZM206.438 30.326C205.178 31.598 203.636 32.234 201.812 32.234C199.988 32.234 198.446 31.598 197.186 30.326C195.926 29.054 195.296 27.512 195.296 25.7C195.296 23.876 195.926 22.334 197.186 21.074C198.446 19.802 199.988 19.166 201.812 19.166C203.636 19.166 205.178 19.802 206.438 21.074C207.71 22.334 208.346 23.876 208.346 25.7C208.346 27.512 207.71 29.054 206.438 30.326ZM198.338 29.192C199.274 30.128 200.432 30.596 201.812 30.596C203.192 30.596 204.344 30.128 205.268 29.192C206.204 28.244 206.672 27.08 206.672 25.7C206.672 24.308 206.204 23.144 205.268 22.208C204.344 21.26 203.192 20.786 201.812 20.786C200.432 20.786 199.274 21.26 198.338 22.208C197.414 23.144 196.952 24.308 196.952 25.7C196.952 27.08 197.414 28.244 198.338 29.192ZM219.232 19.4V20.984H213.832V32H212.158V19.4H219.232Z" fill="white"/>
<rect x="0.5" y="0.5" width="254" height="50" stroke="white"/>
</svg>
